<mxfile host="app.diagrams.net" agent="Mozilla/5.0 (Windows NT 10.0; Win64; x64) AppleWebKit/537.36 (KHTML, like Gecko) Chrome/127.0.0.0 Safari/537.36" version="24.7.7">
  <diagram name="Page-1" id="edf60f1a-56cd-e834-aa8a-f176f3a09ee4">
    <mxGraphModel dx="2972" dy="1126" grid="1" gridSize="10" guides="1" tooltips="1" connect="1" arrows="1" fold="1" page="1" pageScale="1" pageWidth="1100" pageHeight="850" background="none" math="0" shadow="0">
      <root>
        <mxCell id="0" />
        <mxCell id="1" parent="0" />
        <mxCell id="noG9mjy7k5Ba110rl9jg-1" value="&lt;font style=&quot;font-size: 24px;&quot;&gt;Data Collection&lt;/font&gt;" style="rounded=0;whiteSpace=wrap;html=1;" parent="1" vertex="1">
          <mxGeometry x="-220" y="190" width="210" height="60" as="geometry" />
        </mxCell>
        <mxCell id="noG9mjy7k5Ba110rl9jg-2" value="&lt;font style=&quot;font-size: 24px;&quot;&gt;Data Preprocessing&lt;/font&gt;" style="rounded=0;whiteSpace=wrap;html=1;" parent="1" vertex="1">
          <mxGeometry x="130" y="190" width="210" height="60" as="geometry" />
        </mxCell>
        <mxCell id="noG9mjy7k5Ba110rl9jg-6" value="&lt;font style=&quot;font-size: 24px;&quot;&gt;NLP Model&lt;/font&gt;" style="rounded=0;whiteSpace=wrap;html=1;" parent="1" vertex="1">
          <mxGeometry x="450" y="330" width="210" height="60" as="geometry" />
        </mxCell>
        <mxCell id="noG9mjy7k5Ba110rl9jg-7" value="&lt;font style=&quot;font-size: 24px;&quot;&gt;Model Evaluation&lt;/font&gt;" style="rounded=0;whiteSpace=wrap;html=1;" parent="1" vertex="1">
          <mxGeometry x="450" y="460" width="210" height="60" as="geometry" />
        </mxCell>
        <mxCell id="noG9mjy7k5Ba110rl9jg-8" value="" style="endArrow=classic;html=1;rounded=0;exitX=1;exitY=0.5;exitDx=0;exitDy=0;entryX=0;entryY=0.5;entryDx=0;entryDy=0;" parent="1" source="noG9mjy7k5Ba110rl9jg-1" target="noG9mjy7k5Ba110rl9jg-2" edge="1">
          <mxGeometry width="50" height="50" relative="1" as="geometry">
            <mxPoint x="310" y="460" as="sourcePoint" />
            <mxPoint x="360" y="410" as="targetPoint" />
          </mxGeometry>
        </mxCell>
        <mxCell id="noG9mjy7k5Ba110rl9jg-9" value="" style="endArrow=classic;html=1;rounded=0;exitX=1;exitY=0.5;exitDx=0;exitDy=0;entryX=0;entryY=0.5;entryDx=0;entryDy=0;" parent="1" source="noG9mjy7k5Ba110rl9jg-2" target="HYVIUJdoedd1jm_c8L_Y-1" edge="1">
          <mxGeometry width="50" height="50" relative="1" as="geometry">
            <mxPoint x="610" y="230" as="sourcePoint" />
            <mxPoint x="430" y="220" as="targetPoint" />
          </mxGeometry>
        </mxCell>
        <mxCell id="noG9mjy7k5Ba110rl9jg-47" value="" style="rounded=0;whiteSpace=wrap;html=1;" parent="1" vertex="1">
          <mxGeometry x="-22.5" y="30" width="515" height="100" as="geometry" />
        </mxCell>
        <mxCell id="noG9mjy7k5Ba110rl9jg-39" value="&lt;font style=&quot;font-size: 24px;&quot;&gt;Vectorize&lt;/font&gt;" style="rounded=0;whiteSpace=wrap;html=1;" parent="1" vertex="1">
          <mxGeometry y="60" width="120" height="40" as="geometry" />
        </mxCell>
        <mxCell id="noG9mjy7k5Ba110rl9jg-40" value="&lt;font style=&quot;font-size: 24px;&quot;&gt;Tokenize&lt;/font&gt;" style="rounded=0;whiteSpace=wrap;html=1;" parent="1" vertex="1">
          <mxGeometry x="140" y="60" width="120" height="40" as="geometry" />
        </mxCell>
        <mxCell id="noG9mjy7k5Ba110rl9jg-49" value="" style="endArrow=classic;html=1;rounded=0;exitX=0.5;exitY=0;exitDx=0;exitDy=0;entryX=0.5;entryY=1;entryDx=0;entryDy=0;" parent="1" source="noG9mjy7k5Ba110rl9jg-2" target="noG9mjy7k5Ba110rl9jg-47" edge="1">
          <mxGeometry width="50" height="50" relative="1" as="geometry">
            <mxPoint x="780" y="160" as="sourcePoint" />
            <mxPoint x="830" y="110" as="targetPoint" />
          </mxGeometry>
        </mxCell>
        <mxCell id="noG9mjy7k5Ba110rl9jg-50" value="&lt;font style=&quot;font-size: 24px;&quot;&gt;Chatbot Interface Design&lt;/font&gt;" style="rounded=0;whiteSpace=wrap;html=1;" parent="1" vertex="1">
          <mxGeometry x="450" y="600" width="210" height="60" as="geometry" />
        </mxCell>
        <mxCell id="noG9mjy7k5Ba110rl9jg-51" value="&lt;font style=&quot;font-size: 24px;&quot;&gt;Model-Chatbot Integration&lt;/font&gt;" style="rounded=0;whiteSpace=wrap;html=1;" parent="1" vertex="1">
          <mxGeometry x="450" y="730" width="210" height="60" as="geometry" />
        </mxCell>
        <mxCell id="noG9mjy7k5Ba110rl9jg-52" value="&lt;font style=&quot;font-size: 24px;&quot;&gt;Testing and Validation&lt;/font&gt;" style="rounded=0;whiteSpace=wrap;html=1;" parent="1" vertex="1">
          <mxGeometry x="450" y="860" width="210" height="60" as="geometry" />
        </mxCell>
        <mxCell id="noG9mjy7k5Ba110rl9jg-53" value="&lt;font style=&quot;font-size: 24px;&quot;&gt;Deployment&lt;/font&gt;" style="rounded=0;whiteSpace=wrap;html=1;" parent="1" vertex="1">
          <mxGeometry x="450" y="990" width="210" height="60" as="geometry" />
        </mxCell>
        <mxCell id="noG9mjy7k5Ba110rl9jg-55" value="" style="endArrow=classic;html=1;rounded=0;exitX=0.5;exitY=1;exitDx=0;exitDy=0;entryX=0.5;entryY=0;entryDx=0;entryDy=0;" parent="1" source="noG9mjy7k5Ba110rl9jg-50" target="noG9mjy7k5Ba110rl9jg-51" edge="1">
          <mxGeometry width="50" height="50" relative="1" as="geometry">
            <mxPoint x="413" y="780" as="sourcePoint" />
            <mxPoint x="413" y="1000" as="targetPoint" />
          </mxGeometry>
        </mxCell>
        <mxCell id="noG9mjy7k5Ba110rl9jg-56" value="" style="endArrow=classic;html=1;rounded=0;exitX=0.5;exitY=1;exitDx=0;exitDy=0;entryX=0.5;entryY=0;entryDx=0;entryDy=0;" parent="1" source="noG9mjy7k5Ba110rl9jg-51" target="noG9mjy7k5Ba110rl9jg-52" edge="1">
          <mxGeometry width="50" height="50" relative="1" as="geometry">
            <mxPoint x="465" y="1060" as="sourcePoint" />
            <mxPoint x="465" y="1110" as="targetPoint" />
          </mxGeometry>
        </mxCell>
        <mxCell id="noG9mjy7k5Ba110rl9jg-57" value="" style="endArrow=classic;html=1;rounded=0;exitX=0.5;exitY=1;exitDx=0;exitDy=0;entryX=0.5;entryY=0;entryDx=0;entryDy=0;" parent="1" source="noG9mjy7k5Ba110rl9jg-52" target="noG9mjy7k5Ba110rl9jg-53" edge="1">
          <mxGeometry width="50" height="50" relative="1" as="geometry">
            <mxPoint x="465" y="1170" as="sourcePoint" />
            <mxPoint x="465" y="1220" as="targetPoint" />
          </mxGeometry>
        </mxCell>
        <mxCell id="HYVIUJdoedd1jm_c8L_Y-1" value="&lt;font style=&quot;font-size: 24px;&quot;&gt;RAG Model&lt;/font&gt;" style="rounded=0;whiteSpace=wrap;html=1;" parent="1" vertex="1">
          <mxGeometry x="450" y="190" width="210" height="60" as="geometry" />
        </mxCell>
        <mxCell id="HYVIUJdoedd1jm_c8L_Y-2" value="" style="endArrow=classic;html=1;rounded=0;exitX=0.5;exitY=1;exitDx=0;exitDy=0;" parent="1" source="HYVIUJdoedd1jm_c8L_Y-1" target="noG9mjy7k5Ba110rl9jg-6" edge="1">
          <mxGeometry width="50" height="50" relative="1" as="geometry">
            <mxPoint x="350" y="230" as="sourcePoint" />
            <mxPoint x="760" y="220" as="targetPoint" />
          </mxGeometry>
        </mxCell>
        <mxCell id="HYVIUJdoedd1jm_c8L_Y-3" value="&lt;font style=&quot;font-size: 24px;&quot;&gt;Normalization&lt;/font&gt;" style="rounded=0;whiteSpace=wrap;html=1;" parent="1" vertex="1">
          <mxGeometry x="280" y="60" width="190" height="40" as="geometry" />
        </mxCell>
        <mxCell id="KEtJtQFQnEb7KhoHs2z8-2" value="" style="endArrow=classic;html=1;rounded=0;exitX=0.5;exitY=1;exitDx=0;exitDy=0;" edge="1" parent="1" source="noG9mjy7k5Ba110rl9jg-6" target="noG9mjy7k5Ba110rl9jg-7">
          <mxGeometry width="50" height="50" relative="1" as="geometry">
            <mxPoint x="565" y="260" as="sourcePoint" />
            <mxPoint x="565" y="340" as="targetPoint" />
          </mxGeometry>
        </mxCell>
        <mxCell id="KEtJtQFQnEb7KhoHs2z8-3" value="" style="endArrow=classic;html=1;rounded=0;exitX=0.5;exitY=1;exitDx=0;exitDy=0;" edge="1" parent="1" source="noG9mjy7k5Ba110rl9jg-7" target="noG9mjy7k5Ba110rl9jg-50">
          <mxGeometry width="50" height="50" relative="1" as="geometry">
            <mxPoint x="565" y="400" as="sourcePoint" />
            <mxPoint x="565" y="470" as="targetPoint" />
          </mxGeometry>
        </mxCell>
      </root>
    </mxGraphModel>
  </diagram>
</mxfile>
